<?xml version="1.0" encoding="UTF-8" standalone="no"?> <svg xmlns="http://www.w3.org/2000/svg" xmlns:xlink="http://www.w3.org/1999/xlink" xmlns:serif="http://www.serif.com/" width="100%" height="100%" viewBox="0 0 787 329" xml:space="preserve" style="fill-rule:evenodd;clip-rule:evenodd;stroke-linecap:round;stroke-linejoin:round;stroke-miterlimit:2.28659;"><g><g><path id="Button-Label" serif:id="Button Label" d="M785.637,-0.548l-610.404,0l46.674,156.232l438.348,94.002l125.382,-250.234Z" style="fill:#e30006;"></path><g transform="matrix(0.45241,0,0,0.429206,-293.515,-400.567)"><text x="1385.94px" y="1123.84px" style="font-family:'Rockwell-Bold', 'Rockwell', serif;font-weight:700;font-size:128px;fill:#fff;">An<tspan x="1568.44px 1651.12px 1727px 1814.06px 1890px " y="1123.84px 1123.84px 1123.84px 1123.84px 1123.84px ">gebot</tspan> d<tspan x="2058.81px 2135.31px " y="1123.84px 1123.84px ">er</tspan></text><text x="1385.94px" y="1277.47px" style="font-family:'Rockwell-Bold', 'Rockwell', serif;font-weight:700;font-size:128px;fill:#fff;">W<tspan x="1510.75px " y="1277.47px ">o</tspan>ch<tspan x="1750.38px " y="1277.47px ">e</tspan></text></g></g><g><g><path d="M175.233,-0.548l20.111,84.191c1.16,4.858 4.76,8.881 9.651,10.786c4.89,1.905 10.46,1.455 14.933,-1.209l77.518,-46.157l-49.077,72.907c-2.832,4.206 -3.311,9.445 -1.285,14.045c2.025,4.599 6.303,7.985 11.468,9.076l89.516,18.915l-89.516,18.915c-5.165,1.091 -9.443,4.477 -11.468,9.076c-2.026,4.6 -1.547,9.839 1.285,14.045l49.077,72.908l-77.518,-46.158c-4.473,-2.663 -10.043,-3.114 -14.933,-1.209c-4.891,1.905 -8.491,5.929 -9.651,10.786l-20.111,84.192l-20.111,-84.192c-1.16,-4.857 -4.76,-8.881 -9.651,-10.786c-4.89,-1.905 -10.46,-1.454 -14.933,1.209l-77.518,46.158l49.077,-72.908c2.832,-4.206 3.311,-9.445 1.285,-14.045c-2.025,-4.599 -6.303,-7.985 -11.468,-9.076l-89.516,-18.915l89.516,-18.915c5.165,-1.091 9.443,-4.477 11.468,-9.076c2.026,-4.6 1.547,-9.839 -1.285,-14.045l-49.077,-72.907l77.518,46.157c4.473,2.664 10.043,3.114 14.933,1.209c4.891,-1.905 8.491,-5.928 9.651,-10.786l20.111,-84.191Z" style="fill:#e30006;"></path><path d="M175.233,-0.548l20.111,84.191c1.16,4.858 4.76,8.881 9.651,10.786c4.89,1.905 10.46,1.455 14.933,-1.209l77.518,-46.157l-49.077,72.907c-2.832,4.206 -3.311,9.445 -1.285,14.045c2.025,4.599 6.303,7.985 11.468,9.076l89.516,18.915l-89.516,18.915c-5.165,1.091 -9.443,4.477 -11.468,9.076c-2.026,4.6 -1.547,9.839 1.285,14.045l49.077,72.908l-77.518,-46.158c-4.473,-2.663 -10.043,-3.114 -14.933,-1.209c-4.891,1.905 -8.491,5.929 -9.651,10.786l-20.111,84.192l-20.111,-84.192c-1.16,-4.857 -4.76,-8.881 -9.651,-10.786c-4.89,-1.905 -10.46,-1.454 -14.933,1.209l-77.518,46.158l49.077,-72.908c2.832,-4.206 3.311,-9.445 1.285,-14.045c-2.025,-4.599 -6.303,-7.985 -11.468,-9.076l-89.516,-18.915l89.516,-18.915c5.165,-1.091 9.443,-4.477 11.468,-9.076c2.026,-4.6 1.547,-9.839 -1.285,-14.045l-49.077,-72.907l77.518,46.157c4.473,2.664 10.043,3.114 14.933,1.209c4.891,-1.905 8.491,-5.928 9.651,-10.786l20.111,-84.191Z" style="fill:none;stroke:#fff;stroke-width:8.23px;"></path><path d="M175.233,-0.548l20.111,84.191c1.16,4.858 4.76,8.881 9.651,10.786c4.89,1.905 10.46,1.455 14.933,-1.209l77.518,-46.157l-49.077,72.907c-2.832,4.206 -3.311,9.445 -1.285,14.045c2.025,4.599 6.303,7.985 11.468,9.076l89.516,18.915l-89.516,18.915c-5.165,1.091 -9.443,4.477 -11.468,9.076c-2.026,4.6 -1.547,9.839 1.285,14.045l49.077,72.908l-77.518,-46.158c-4.473,-2.663 -10.043,-3.114 -14.933,-1.209c-4.891,1.905 -8.491,5.929 -9.651,10.786l-20.111,84.192l-20.111,-84.192c-1.16,-4.857 -4.76,-8.881 -9.651,-10.786c-4.89,-1.905 -10.46,-1.454 -14.933,1.209l-77.518,46.158l49.077,-72.908c2.832,-4.206 3.311,-9.445 1.285,-14.045c-2.025,-4.599 -6.303,-7.985 -11.468,-9.076l-89.516,-18.915l89.516,-18.915c5.165,-1.091 9.443,-4.477 11.468,-9.076c2.026,-4.6 1.547,-9.839 -1.285,-14.045l-49.077,-72.907l77.518,46.157c4.473,2.664 10.043,3.114 14.933,1.209c4.891,-1.905 8.491,-5.928 9.651,-10.786l20.111,-84.191Z" style="fill:none;stroke:#e30006;stroke-width:2.74px;stroke-linecap:butt;stroke-miterlimit:2;"></path><g id="Ebene1"><path d="M176.155,50.612l40.692,31.912l50.32,11.918l0.422,51.71l22.056,46.773l-40.166,32.571l-22.816,46.406l-50.508,-11.095l-50.508,11.095l-22.817,-46.406l-40.166,-32.571l22.056,-46.773l0.422,-51.71l50.321,-11.918l40.692,-31.912Z" style="fill:#e30006;"></path><path d="M176.155,50.612l40.692,31.912l50.32,11.918l0.422,51.71l22.056,46.773l-40.166,32.571l-22.816,46.406l-50.508,-11.095l-50.508,11.095l-22.817,-46.406l-40.166,-32.571l22.056,-46.773l0.422,-51.71l50.321,-11.918l40.692,-31.912Z" style="fill:none;stroke:#e30006;stroke-width:8.23px;stroke-linecap:butt;stroke-miterlimit:2;"></path><path d="M176.155,50.612l40.692,31.912l50.32,11.918l0.422,51.71l22.056,46.773l-40.166,32.571l-22.816,46.406l-50.508,-11.095l-50.508,11.095l-22.817,-46.406l-40.166,-32.571l22.056,-46.773l0.422,-51.71l50.321,-11.918l40.692,-31.912Z" style="fill:none;stroke:#fff;stroke-width:9.45px;stroke-linecap:butt;stroke-miterlimit:2;"></path><path d="M176.155,50.612l40.692,31.912l50.32,11.918l0.422,51.71l22.056,46.773l-40.166,32.571l-22.816,46.406l-50.508,-11.095l-50.508,11.095l-22.817,-46.406l-40.166,-32.571l22.056,-46.773l0.422,-51.71l50.321,-11.918l40.692,-31.912Z" style="fill:none;stroke:#e30006;stroke-width:3.66px;stroke-linecap:butt;stroke-miterlimit:2;"></path></g><path d="M131.738,89.408c11.849,-9.993 27.849,-16.154 44.683,-16.154c16.834,0 32.834,6.161 44.683,16.154c14.579,5.265 27.914,16.041 36.331,30.619c8.417,14.579 11.082,31.516 8.352,46.774c2.73,15.258 0.065,32.194 -8.352,46.773c-8.417,14.579 -21.752,25.355 -36.331,30.62c-11.849,9.993 -27.849,16.154 -44.683,16.154c-16.834,0 -32.834,-6.161 -44.683,-16.154c-14.579,-5.265 -27.914,-16.041 -36.331,-30.62c-8.417,-14.579 -11.082,-31.515 -8.352,-46.773c-2.73,-15.258 -0.065,-32.195 8.352,-46.774c8.417,-14.578 21.752,-25.354 36.331,-30.619Z" style="fill:#e30006;"></path><path d="M131.738,89.408c11.849,-9.993 27.849,-16.154 44.683,-16.154c16.834,0 32.834,6.161 44.683,16.154c14.579,5.265 27.914,16.041 36.331,30.619c8.417,14.579 11.082,31.516 8.352,46.774c2.73,15.258 0.065,32.194 -8.352,46.773c-8.417,14.579 -21.752,25.355 -36.331,30.62c-11.849,9.993 -27.849,16.154 -44.683,16.154c-16.834,0 -32.834,-6.161 -44.683,-16.154c-14.579,-5.265 -27.914,-16.041 -36.331,-30.62c-8.417,-14.579 -11.082,-31.515 -8.352,-46.773c-2.73,-15.258 -0.065,-32.195 8.352,-46.774c8.417,-14.578 21.752,-25.354 36.331,-30.619Z" style="fill:none;stroke:#fff;stroke-width:14.33px;stroke-linecap:butt;stroke-miterlimit:2;"></path><path d="M131.738,89.408c11.849,-9.993 27.849,-16.154 44.683,-16.154c16.834,0 32.834,6.161 44.683,16.154c14.579,5.265 27.914,16.041 36.331,30.619c8.417,14.579 11.082,31.516 8.352,46.774c2.73,15.258 0.065,32.194 -8.352,46.773c-8.417,14.579 -21.752,25.355 -36.331,30.62c-11.849,9.993 -27.849,16.154 -44.683,16.154c-16.834,0 -32.834,-6.161 -44.683,-16.154c-14.579,-5.265 -27.914,-16.041 -36.331,-30.62c-8.417,-14.579 -11.082,-31.515 -8.352,-46.773c-2.73,-15.258 -0.065,-32.195 8.352,-46.774c8.417,-14.578 21.752,-25.354 36.331,-30.619Z" style="fill:none;stroke:#e30006;stroke-width:8.84px;stroke-linecap:butt;stroke-miterlimit:2;"></path><path d="M176.139,94.906c0,0 0.798,0.868 1.511,1.287c5.719,3.36 27.287,10.709 38.005,22.332c11.105,12.042 9.389,15.118 9.389,32.31c0,6.192 -0.604,14.962 -0.604,17.224c0,2.449 -2.397,2.449 -3.741,4.261c-2.272,3.065 -2.272,4.417 -2.272,12.213c0,5.888 2.272,10.068 3.479,12.847c1.603,2.518 2.068,11.166 -2.961,14.358c0,0 -30.388,20.873 -36.019,20.873c1.69,-11.297 4.37,-29.209 6.694,-44.745c1.101,-7.357 -0.126,-13.551 4.085,-16.711c4.875,-3.658 7.698,-2.305 9.501,-3.658c3.05,-2.289 9.918,-8.448 9.918,-8.448l-6.434,-4.482l-22.353,1.5l-3.053,2.982c0,0 0.108,3.613 0.464,5.948c0.313,2.061 2.2,4.58 3.518,7.323c0.811,1.394 0.39,3.025 -0.929,4.915c-2.589,3.71 -8.478,7.298 -9.054,7.298c-0.695,0 -4.808,-3.446 -7.366,-7.298c-0.694,-1.045 -1.763,-2.933 -0.772,-4.915c1.531,-3.064 2.979,-4.174 3.229,-6.464c0.21,-1.927 0.743,-6.807 0.743,-6.807l-2.042,-2.681l-23.251,-1.801c0,0 -4.072,3.046 -5.992,4.482c5.992,5.948 7.758,7.961 10.816,9.01c5.292,1.816 6.442,1.199 9.18,4.261c0.622,0.696 1.161,2.286 1.498,4.417c0.902,5.709 2.072,13.112 3.262,20.643c2.734,17.296 5.114,35.706 5.114,35.706c0,0 -39.398,-17.739 -40.516,-29.072c-1.499,-6.748 4.826,-10.047 4.826,-21.568c0,-4.533 -0.477,-6.88 -1.616,-9.085c-0.699,-1.352 -4.504,-2.72 -4.504,-5.302c0,-10.098 -0.861,-19.246 0,-27.983c0.75,-7.619 3.014,-13.53 5.643,-17.51c11.355,-17.196 35.403,-22.321 40.868,-26.373c0.88,-0.653 1.736,-1.287 1.736,-1.287Z" style="fill:#fff;"></path></g></g></g></svg> 